<?xml version="1.0" encoding="UTF-8"?>
<svg width="16px" height="16px" viewBox="0 0 16 16" version="1.1" xmlns="http://www.w3.org/2000/svg" xmlns:xlink="http://www.w3.org/1999/xlink">
    <title>图标/窗口控制/白色/最大化</title>
    <g id="图标/窗口控制/白色/最大化" stroke="none" stroke-width="1" fill="none" fill-rule="evenodd">
        <path d="M13,4.5 L13,11.5 C13,12.3284271 12.3284271,13 11.5,13 L4.5,13 C3.67157288,13 3,12.3284271 3,11.5 L3,4.5 C3,3.67157288 3.67157288,3 4.5,3 L11.5,3 C12.3284271,3 13,3.67157288 13,4.5 Z M11.5,4 L4.5,4 C4.22385763,4 4,4.22385763 4,4.5 L4,11.5 C4,11.7761424 4.22385763,12 4.5,12 L11.5,12 C11.7761424,12 12,11.7761424 12,11.5 L12,4.5 C12,4.22385763 11.7761424,4 11.5,4 Z" id="矩形" fill="#7E8186"></path>
    </g>
</svg>